<?xml version="1.0" standalone="no"?>
<!DOCTYPE svg PUBLIC "-//W3C//DTD SVG 20010904//EN"
 "http://www.w3.org/TR/2001/REC-SVG-20010904/DTD/svg10.dtd">
<svg version="1.0" xmlns="http://www.w3.org/2000/svg"
 width="218.000000pt" height="218.000000pt" viewBox="0 0 218.000000 218.000000"
 preserveAspectRatio="xMidYMid meet">
<metadata>
Created by potrace 1.11, written by Peter Selinger 2001-2013
</metadata>
<g transform="translate(0.000000,218.000000) scale(0.100000,-0.100000)"
fill="#000000" stroke="none">
<path d="M1057 2174 c-1 -1 -33 -4 -72 -7 -371 -29 -712 -271 -876 -623 -39
-82 -80 -221 -93 -314 -7 -51 -9 -234 -2 -267 3 -11 8 -43 12 -70 11 -75 60
-217 105 -304 23 -43 44 -79 48 -79 4 0 67 122 141 272 74 149 144 280 155
290 34 32 72 46 120 43 78 -5 108 -34 177 -173 l61 -122 166 332 c156 313 168
334 206 356 30 17 51 22 87 19 79 -7 109 -36 175 -169 32 -65 60 -118 63 -118
5 0 303 603 308 624 3 12 -89 90 -168 142 -109 71 -251 126 -388 149 -70 12
-218 24 -225 19z"/>
<path d="M1818 1421 c-81 -163 -158 -311 -172 -328 -51 -60 -155 -68 -216 -17
-17 15 -53 74 -86 140 -31 63 -58 114 -60 114 -3 0 -77 -145 -165 -323 -169
-342 -182 -362 -254 -374 -49 -8 -100 4 -134 32 -16 15 -52 73 -84 140 -31 63
-58 115 -60 115 -3 0 -28 -48 -57 -107 -29 -60 -93 -188 -142 -286 l-89 -179
53 -49 c126 -118 295 -211 466 -256 124 -33 364 -42 477 -17 111 25 238 71
317 116 351 198 559 550 559 948 0 116 -5 156 -27 245 -9 33 -17 67 -19 76
-15 72 -122 284 -153 303 -5 3 -74 -129 -154 -293z"/>
</g>
</svg>
